{
    "asset" : {
        "generator" : "Khronos glTF Blender I/O v3.4.50",
        "version" : "2.0"
    },
    "scene" : 0,
    "scenes" : [
        {
            "name" : "Scene",
            "nodes" : [
                0,
                1,
                2
            ]
        }
    ],
    "nodes" : [
        {
            "name" : "Empty",
            "rotation" : [
                0.70710688829422,
                0,
                0,
                0.7071066498756409
            ],
            "translation" : [
                -0.129675030708313,
                -0.9401719570159912,
                0.00038061290979385376
            ]
        },
        {
            "name" : "Empty.001",
            "rotation" : [
                0.5,
                0.5,
                -0.5,
                0.5
            ],
            "translation" : [
                0,
                0,
                0.11825484782457352
            ]
        },
        {
            "mesh" : 0,
            "name" : "Plane",
            "rotation" : [
                0.70710688829422,
                0,
                0,
                0.7071066498756409
            ]
        }
    ],
    "materials" : [
        {
            "doubleSided" : true,
            "name" : "Material.004",
            "pbrMetallicRoughness" : {
                "baseColorTexture" : {
                    "index" : 0
                },
                "metallicFactor" : 0,
                "roughnessFactor" : 0.5
            }
        }
    ],
    "meshes" : [
        {
            "name" : "Plane",
            "primitives" : [
                {
                    "attributes" : {
                        "POSITION" : 0,
                        "TEXCOORD_0" : 1,
                        "NORMAL" : 2
                    },
                    "indices" : 3,
                    "material" : 0
                }
            ]
        }
    ],
    "textures" : [
        {
            "sampler" : 0,
            "source" : 0
        }
    ],
    "images" : [
        {
            "bufferView" : 4,
            "mimeType" : "image/jpeg",
            "name" : "Cuy lateral"
        }
    ],
    "accessors" : [
        {
            "bufferView" : 0,
            "componentType" : 5126,
            "count" : 4766,
            "max" : [
                3.296114921569824,
                1.699280023574829,
                2.2561848163604736
            ],
            "min" : [
                -3.8665146827697754,
                -1.699280023574829,
                -1.5518558025360107
            ],
            "type" : "VEC3"
        },
        {
            "bufferView" : 1,
            "componentType" : 5126,
            "count" : 4766,
            "type" : "VEC2"
        },
        {
            "bufferView" : 2,
            "componentType" : 5126,
            "count" : 4766,
            "type" : "VEC3"
        },
        {
            "bufferView" : 3,
            "componentType" : 5123,
            "count" : 7788,
            "type" : "SCALAR"
        }
    ],
    "bufferViews" : [
        {
            "buffer" : 0,
            "byteLength" : 57192,
            "byteOffset" : 0,
            "target" : 34962
        },
        {
            "buffer" : 0,
            "byteLength" : 38128,
            "byteOffset" : 57192,
            "target" : 34962
        },
        {
            "buffer" : 0,
            "byteLength" : 57192,
            "byteOffset" : 95320,
            "target" : 34962
        },
        {
            "buffer" : 0,
            "byteLength" : 15576,
            "byteOffset" : 152512,
            "target" : 34963
        },
        {
            "buffer" : 0,
            "byteLength" : 51386,
            "byteOffset" : 168088
        }
    ],
    "samplers" : [
        {
            "magFilter" : 9729,
            "minFilter" : 9987
        }
    ],
    "buffers" : [
        {
            "byteLength" : 219476,
            "uri" : "data:application/octet-stream;base64,"
        }
    ]
}
