{"accessors" : [{"bufferView" : 0, "byteOffset" : 0, "componentType" : 5123, "count" : 36, "type" : "SCALAR", "max" : [29], "min" : [0]}, {"bufferView" : 1, "byteOffset" : 0, "componentType" : 5126, "count" : 30, "type" : "VEC3", "max" : [1, 1, 1], "min" : [-1, -1, -1], "name" : "POSITION"}, {"bufferView" : 1, "byteOffset" : 12, "componentType" : 5126, "count" : 30, "type" : "VEC2", "max" : [0.875, 1], "min" : [0.125, 0], "name" : "TEXCOORD_0"}, {"bufferView" : 1, "byteOffset" : 20, "componentType" : 5126, "count" : 30, "type" : "VEC3", "max" : [0.5773527026176453, 0.5773527026176453, 0.5773527026176453], "min" : [-0.5773527026176453, -0.5773527026176453, -0.5773527026176453], "name" : "NORMAL"}, {"bufferView" : 0, "byteOffset" : 72, "componentType" : 5123, "count" : 36, "type" : "SCALAR", "max" : [29], "min" : [0]}, {"bufferView" : 2, "byteOffset" : 0, "componentType" : 5126, "count" : 30, "type" : "VEC3", "max" : [1, 1, 1], "min" : [-1, -1, -1], "name" : "POSITION"}, {"bufferView" : 2, "byteOffset" : 12, "componentType" : 5126, "count" : 30, "type" : "VEC2", "max" : [0.875, 1], "min" : [0.125, 0], "name" : "TEXCOORD_0"}, {"bufferView" : 2, "byteOffset" : 20, "componentType" : 5126, "count" : 30, "type" : "VEC3", "max" : [0.5773527026176453, 0.5773527026176453, 0.5773527026176453], "min" : [-0.5773527026176453, -0.5773527026176453, -0.5773527026176453], "name" : "NORMAL"}, {"bufferView" : 0, "byteOffset" : 144, "componentType" : 5123, "count" : 36, "type" : "SCALAR", "max" : [29], "min" : [0]}, {"bufferView" : 3, "byteOffset" : 0, "componentType" : 5126, "count" : 30, "type" : "VEC3", "max" : [1, 1, 1], "min" : [-1, -1, -1], "name" : "POSITION"}, {"bufferView" : 3, "byteOffset" : 12, "componentType" : 5126, "count" : 30, "type" : "VEC2", "max" : [0.875, 1], "min" : [0.125, 0], "name" : "TEXCOORD_0"}, {"bufferView" : 3, "byteOffset" : 20, "componentType" : 5126, "count" : 30, "type" : "VEC3", "max" : [0.5773527026176453, 0.5773527026176453, 0.5773527026176453], "min" : [-0.5773527026176453, -0.5773527026176453, -0.5773527026176453], "name" : "NORMAL"}, {"bufferView" : 0, "byteOffset" : 216, "componentType" : 5123, "count" : 36, "type" : "SCALAR", "max" : [29], "min" : [0]}, {"bufferView" : 4, "byteOffset" : 0, "componentType" : 5126, "count" : 30, "type" : "VEC3", "max" : [1, 1, 1], "min" : [-1, -1, -1], "name" : "POSITION"}, {"bufferView" : 4, "byteOffset" : 12, "componentType" : 5126, "count" : 30, "type" : "VEC2", "max" : [0.875, 1], "min" : [0.125, 0], "name" : "TEXCOORD_0"}, {"bufferView" : 4, "byteOffset" : 20, "componentType" : 5126, "count" : 30, "type" : "VEC3", "max" : [0.5773527026176453, 0.5773527026176453, 0.5773527026176453], "min" : [-0.5773527026176453, -0.5773527026176453, -0.5773527026176453], "name" : "NORMAL"}, {"bufferView" : 0, "byteOffset" : 288, "componentType" : 5123, "count" : 372, "type" : "SCALAR", "max" : [311], "min" : [0]}, {"bufferView" : 5, "byteOffset" : 0, "componentType" : 5126, "count" : 312, "type" : "VEC3", "max" : [1, 1, 1], "min" : [-1, -1, -1], "name" : "POSITION"}, {"bufferView" : 5, "byteOffset" : 12, "componentType" : 5126, "count" : 312, "type" : "VEC2", "max" : [1, 0.9900000095367432], "min" : [0, 0], "name" : "TEXCOORD_0"}, {"bufferView" : 5, "byteOffset" : 20, "componentType" : 5126, "count" : 312, "type" : "VEC3", "max" : [0.7278907895088196, 0.6856995224952698, 0.7278907895088196], "min" : [-0.7278907895088196, -0.6856995224952698, -0.7278907895088196], "name" : "NORMAL"}, {"bufferView" : 0, "byteOffset" : 1032, "componentType" : 5123, "count" : 36, "type" : "SCALAR", "max" : [29], "min" : [0]}, {"bufferView" : 6, "byteOffset" : 0, "componentType" : 5126, "count" : 30, "type" : "VEC3", "max" : [1, 1, 1], "min" : [-1, -1, -1], "name" : "POSITION"}, {"bufferView" : 6, "byteOffset" : 12, "componentType" : 5126, "count" : 30, "type" : "VEC2", "max" : [0.875, 1], "min" : [0.125, 0], "name" : "TEXCOORD_0"}, {"bufferView" : 6, "byteOffset" : 20, "componentType" : 5126, "count" : 30, "type" : "VEC3", "max" : [0.5773527026176453, 0.5773527026176453, 0.5773527026176453], "min" : [-0.5773527026176453, -0.5773527026176453, -0.5773527026176453], "name" : "NORMAL"}, {"bufferView" : 0, "byteOffset" : 1104, "componentType" : 5123, "count" : 372, "type" : "SCALAR", "max" : [311], "min" : [0]}, {"bufferView" : 7, "byteOffset" : 0, "componentType" : 5126, "count" : 312, "type" : "VEC3", "max" : [1, 1, 1], "min" : [-1, -1, -1], "name" : "POSITION"}, {"bufferView" : 7, "byteOffset" : 12, "componentType" : 5126, "count" : 312, "type" : "VEC2", "max" : [1, 0.9900000095367432], "min" : [0, 0], "name" : "TEXCOORD_0"}, {"bufferView" : 7, "byteOffset" : 20, "componentType" : 5126, "count" : 312, "type" : "VEC3", "max" : [0.7278907895088196, 0.6856995224952698, 0.7278907895088196], "min" : [-0.7278907895088196, -0.6856995224952698, -0.7278907895088196], "name" : "NORMAL"}, {"bufferView" : 0, "byteOffset" : 1848, "componentType" : 5123, "count" : 36, "type" : "SCALAR", "max" : [29], "min" : [0]}, {"bufferView" : 8, "byteOffset" : 0, "componentType" : 5126, "count" : 30, "type" : "VEC3", "max" : [1, 1, 1], "min" : [-1, -1, -1], "name" : "POSITION"}, {"bufferView" : 8, "byteOffset" : 12, "componentType" : 5126, "count" : 30, "type" : "VEC2", "max" : [0.875, 1], "min" : [0.125, 0], "name" : "TEXCOORD_0"}, {"bufferView" : 8, "byteOffset" : 20, "componentType" : 5126, "count" : 30, "type" : "VEC3", "max" : [0.5773527026176453, 0.5773527026176453, 0.5773527026176453], "min" : [-0.5773527026176453, -0.5773527026176453, -0.5773527026176453], "name" : "NORMAL"}, {"bufferView" : 0, "byteOffset" : 1920, "componentType" : 5123, "count" : 372, "type" : "SCALAR", "max" : [311], "min" : [0]}, {"bufferView" : 9, "byteOffset" : 0, "componentType" : 5126, "count" : 312, "type" : "VEC3", "max" : [1, 1, 1], "min" : [-1, -1, -1], "name" : "POSITION"}, {"bufferView" : 9, "byteOffset" : 12, "componentType" : 5126, "count" : 312, "type" : "VEC2", "max" : [1, 0.9900000095367432], "min" : [0, 0], "name" : "TEXCOORD_0"}, {"bufferView" : 9, "byteOffset" : 20, "componentType" : 5126, "count" : 312, "type" : "VEC3", "max" : [0.7278907895088196, 0.6856995224952698, 0.7278907895088196], "min" : [-0.7278907895088196, -0.6856995224952698, -0.7278907895088196], "name" : "NORMAL"}, {"bufferView" : 0, "byteOffset" : 2664, "componentType" : 5123, "count" : 36, "type" : "SCALAR", "max" : [29], "min" : [0]}, {"bufferView" : 10, "byteOffset" : 0, "componentType" : 5126, "count" : 30, "type" : "VEC3", "max" : [1, 1, 1], "min" : [-1, -1, -1], "name" : "POSITION"}, {"bufferView" : 10, "byteOffset" : 12, "componentType" : 5126, "count" : 30, "type" : "VEC2", "max" : [0.875, 1], "min" : [0.125, 0], "name" : "TEXCOORD_0"}, {"bufferView" : 10, "byteOffset" : 20, "componentType" : 5126, "count" : 30, "type" : "VEC3", "max" : [0.5773527026176453, 0.5773527026176453, 0.5773527026176453], "min" : [-0.5773527026176453, -0.5773527026176453, -0.5773527026176453], "name" : "NORMAL"}, {"bufferView" : 0, "byteOffset" : 2736, "componentType" : 5123, "count" : 372, "type" : "SCALAR", "max" : [311], "min" : [0]}, {"bufferView" : 11, "byteOffset" : 0, "componentType" : 5126, "count" : 312, "type" : "VEC3", "max" : [1, 1, 1], "min" : [-1, -1, -1], "name" : "POSITION"}, {"bufferView" : 11, "byteOffset" : 12, "componentType" : 5126, "count" : 312, "type" : "VEC2", "max" : [1, 0.9900000095367432], "min" : [0, 0], "name" : "TEXCOORD_0"}, {"bufferView" : 11, "byteOffset" : 20, "componentType" : 5126, "count" : 312, "type" : "VEC3", "max" : [0.7278907895088196, 0.6856995224952698, 0.7278907895088196], "min" : [-0.7278907895088196, -0.6856995224952698, -0.7278907895088196], "name" : "NORMAL"}, {"bufferView" : 0, "byteOffset" : 3480, "componentType" : 5123, "count" : 36, "type" : "SCALAR", "max" : [29], "min" : [0]}, {"bufferView" : 12, "byteOffset" : 0, "componentType" : 5126, "count" : 30, "type" : "VEC3", "max" : [1, 1, 1], "min" : [-1, -1, -1], "name" : "POSITION"}, {"bufferView" : 12, "byteOffset" : 12, "componentType" : 5126, "count" : 30, "type" : "VEC2", "max" : [0.875, 1], "min" : [0.125, 0], "name" : "TEXCOORD_0"}, {"bufferView" : 12, "byteOffset" : 20, "componentType" : 5126, "count" : 30, "type" : "VEC3", "max" : [0.5773527026176453, 0.5773527026176453, 0.5773527026176453], "min" : [-0.5773527026176453, -0.5773527026176453, -0.5773527026176453], "name" : "NORMAL"}, {"bufferView" : 0, "byteOffset" : 3552, "componentType" : 5123, "count" : 36, "type" : "SCALAR", "max" : [29], "min" : [0]}, {"bufferView" : 13, "byteOffset" : 0, "componentType" : 5126, "count" : 30, "type" : "VEC3", "max" : [1, 1, 1], "min" : [-1, -1, -1], "name" : "POSITION"}, {"bufferView" : 13, "byteOffset" : 12, "componentType" : 5126, "count" : 30, "type" : "VEC2", "max" : [0.875, 1], "min" : [0.125, 0], "name" : "TEXCOORD_0"}, {"bufferView" : 13, "byteOffset" : 20, "componentType" : 5126, "count" : 30, "type" : "VEC3", "max" : [0.5773527026176453, 0.5773527026176453, 0.5773527026176453], "min" : [-0.5773527026176453, -0.5773527026176453, -0.5773527026176453], "name" : "NORMAL"}, {"bufferView" : 0, "byteOffset" : 3624, "componentType" : 5123, "count" : 36, "type" : "SCALAR", "max" : [29], "min" : [0]}, {"bufferView" : 14, "byteOffset" : 0, "componentType" : 5126, "count" : 30, "type" : "VEC3", "max" : [1, 1, 1], "min" : [-1, -1, -1], "name" : "POSITION"}, {"bufferView" : 14, "byteOffset" : 12, "componentType" : 5126, "count" : 30, "type" : "VEC2", "max" : [0.875, 1], "min" : [0.125, 0], "name" : "TEXCOORD_0"}, {"bufferView" : 14, "byteOffset" : 20, "componentType" : 5126, "count" : 30, "type" : "VEC3", "max" : [0.5773527026176453, 0.5773527026176453, 0.5773527026176453], "min" : [-0.5773527026176453, -0.5773527026176453, -0.5773527026176453], "name" : "NORMAL"}, {"bufferView" : 0, "byteOffset" : 3696, "componentType" : 5123, "count" : 36, "type" : "SCALAR", "max" : [29], "min" : [0]}, {"bufferView" : 15, "byteOffset" : 0, "componentType" : 5126, "count" : 30, "type" : "VEC3", "max" : [1, 1, 1], "min" : [-1, -1, -1], "name" : "POSITION"}, {"bufferView" : 15, "byteOffset" : 12, "componentType" : 5126, "count" : 30, "type" : "VEC2", "max" : [0.875, 1], "min" : [0.125, 0], "name" : "TEXCOORD_0"}, {"bufferView" : 15, "byteOffset" : 20, "componentType" : 5126, "count" : 30, "type" : "VEC3", "max" : [0.5773527026176453, 0.5773527026176453, 0.5773527026176453], "min" : [-0.5773527026176453, -0.5773527026176453, -0.5773527026176453], "name" : "NORMAL"}, {"bufferView" : 0, "byteOffset" : 3768, "componentType" : 5123, "count" : 36, "type" : "SCALAR", "max" : [29], "min" : [0]}, {"bufferView" : 16, "byteOffset" : 0, "componentType" : 5126, "count" : 30, "type" : "VEC3", "max" : [1, 1, 1], "min" : [-1, -1, -1], "name" : "POSITION"}, {"bufferView" : 16, "byteOffset" : 12, "componentType" : 5126, "count" : 30, "type" : "VEC2", "max" : [0.875, 1], "min" : [0.125, 0], "name" : "TEXCOORD_0"}, {"bufferView" : 16, "byteOffset" : 20, "componentType" : 5126, "count" : 30, "type" : "VEC3", "max" : [0.5773527026176453, 0.5773527026176453, 0.5773527026176453], "min" : [-0.5773527026176453, -0.5773527026176453, -0.5773527026176453], "name" : "NORMAL"}, {"bufferView" : 0, "byteOffset" : 3840, "componentType" : 5123, "count" : 36, "type" : "SCALAR", "max" : [29], "min" : [0]}, {"bufferView" : 17, "byteOffset" : 0, "componentType" : 5126, "count" : 30, "type" : "VEC3", "max" : [1, 1, 1], "min" : [-1, -1, -1], "name" : "POSITION"}, {"bufferView" : 17, "byteOffset" : 12, "componentType" : 5126, "count" : 30, "type" : "VEC2", "max" : [0.875, 1], "min" : [0.125, 0], "name" : "TEXCOORD_0"}, {"bufferView" : 17, "byteOffset" : 20, "componentType" : 5126, "count" : 30, "type" : "VEC3", "max" : [0.5773527026176453, 0.5773527026176453, 0.5773527026176453], "min" : [-0.5773527026176453, -0.5773527026176453, -0.5773527026176453], "name" : "NORMAL"}], "asset" : {"generator" : "Aspose.3D 23.2", "version" : "2.0"}, "buffers" : [{"uri" : "data:application/octet-stream;base64,", "byteLength" : 66576}], "bufferViews" : [{"buffer" : 0, "byteOffset" : 0, "byteLength" : 3912, "target" : 34963}, {"buffer" : 0, "byteOffset" : 3916, "byteLength" : 1152, "byteStride" : 32, "target" : 34962}, {"buffer" : 0, "byteOffset" : 5072, "byteLength" : 1152, "byteStride" : 32, "target" : 34962}, {"buffer" : 0, "byteOffset" : 6228, "byteLength" : 1152, "byteStride" : 32, "target" : 34962}, {"buffer" : 0, "byteOffset" : 7384, "byteLength" : 1152, "byteStride" : 32, "target" : 34962}, {"buffer" : 0, "byteOffset" : 8540, "byteLength" : 11904, "byteStride" : 32, "target" : 34962}, {"buffer" : 0, "byteOffset" : 20448, "byteLength" : 1152, "byteStride" : 32, "target" : 34962}, {"buffer" : 0, "byteOffset" : 21604, "byteLength" : 11904, "byteStride" : 32, "target" : 34962}, {"buffer" : 0, "byteOffset" : 33512, "byteLength" : 1152, "byteStride" : 32, "target" : 34962}, {"buffer" : 0, "byteOffset" : 34668, "byteLength" : 11904, "byteStride" : 32, "target" : 34962}, {"buffer" : 0, "byteOffset" : 46576, "byteLength" : 1152, "byteStride" : 32, "target" : 34962}, {"buffer" : 0, "byteOffset" : 47732, "byteLength" : 11904, "byteStride" : 32, "target" : 34962}, {"buffer" : 0, "byteOffset" : 59640, "byteLength" : 1152, "byteStride" : 32, "target" : 34962}, {"buffer" : 0, "byteOffset" : 60796, "byteLength" : 1152, "byteStride" : 32, "target" : 34962}, {"buffer" : 0, "byteOffset" : 61952, "byteLength" : 1152, "byteStride" : 32, "target" : 34962}, {"buffer" : 0, "byteOffset" : 63108, "byteLength" : 1152, "byteStride" : 32, "target" : 34962}, {"buffer" : 0, "byteOffset" : 64264, "byteLength" : 1152, "byteStride" : 32, "target" : 34962}, {"buffer" : 0, "byteOffset" : 65420, "byteLength" : 1152, "byteStride" : 32, "target" : 34962}], "materials" : [{"name" : "cube_cafe", "pbrMetallicRoughness" : {"baseColorFactor" : [0.6538910269737244, 0.09408500045537949, 0, 1], "metallicFactor" : 0, "roughnessFactor" : 0.5}, "emissiveFactor" : [0, 0, 0], "alphaMode" : "OPAQUE", "doubleSided" : true}, {"name" : "cube_cafe.001", "pbrMetallicRoughness" : {"baseColorFactor" : [0.6538910269737244, 0.09408500045537949, 0, 1], "metallicFactor" : 0, "roughnessFactor" : 0.5}, "emissiveFactor" : [0, 0, 0], "alphaMode" : "OPAQUE", "doubleSided" : true}, {"name" : "cube_cafe.002", "pbrMetallicRoughness" : {"baseColorFactor" : [0.6538910269737244, 0.09408500045537949, 0, 1], "metallicFactor" : 0, "roughnessFactor" : 0.5}, "emissiveFactor" : [0, 0, 0], "alphaMode" : "OPAQUE", "doubleSided" : true}, {"name" : "cube_cafe.003", "pbrMetallicRoughness" : {"baseColorFactor" : [0.6538910269737244, 0.09408500045537949, 0, 1], "metallicFactor" : 0, "roughnessFactor" : 0.5}, "emissiveFactor" : [0, 0, 0], "alphaMode" : "OPAQUE", "doubleSided" : true}, {"name" : "cylinder_cafe", "pbrMetallicRoughness" : {"baseColorFactor" : [0.6538910269737244, 0.09408500045537949, 0, 1], "metallicFactor" : 0, "roughnessFactor" : 0.5}, "emissiveFactor" : [0, 0, 0], "alphaMode" : "OPAQUE", "doubleSided" : true}, {"name" : "cube_cafe.004", "pbrMetallicRoughness" : {"baseColorFactor" : [0.6538910269737244, 0.09408500045537949, 0, 1], "metallicFactor" : 0, "roughnessFactor" : 0.5}, "emissiveFactor" : [0, 0, 0], "alphaMode" : "OPAQUE", "doubleSided" : true}, {"name" : "cylinder_cafe.001", "pbrMetallicRoughness" : {"baseColorFactor" : [0.6538910269737244, 0.09408500045537949, 0, 1], "metallicFactor" : 0, "roughnessFactor" : 0.5}, "emissiveFactor" : [0, 0, 0], "alphaMode" : "OPAQUE", "doubleSided" : true}, {"name" : "cube_cafe.005", "pbrMetallicRoughness" : {"baseColorFactor" : [0.6538910269737244, 0.09408500045537949, 0, 1], "metallicFactor" : 0, "roughnessFactor" : 0.5}, "emissiveFactor" : [0, 0, 0], "alphaMode" : "OPAQUE", "doubleSided" : true}, {"name" : "cylinder_cafe.002", "pbrMetallicRoughness" : {"baseColorFactor" : [0.6538910269737244, 0.09408500045537949, 0, 1], "metallicFactor" : 0, "roughnessFactor" : 0.5}, "emissiveFactor" : [0, 0, 0], "alphaMode" : "OPAQUE", "doubleSided" : true}, {"name" : "cube_cafe.006", "pbrMetallicRoughness" : {"baseColorFactor" : [0.6538910269737244, 0.09408500045537949, 0, 1], "metallicFactor" : 0, "roughnessFactor" : 0.5}, "emissiveFactor" : [0, 0, 0], "alphaMode" : "OPAQUE", "doubleSided" : true}, {"name" : "cylinder_cafe.003", "pbrMetallicRoughness" : {"baseColorFactor" : [0.6538910269737244, 0.09408500045537949, 0, 1], "metallicFactor" : 0, "roughnessFactor" : 0.5}, "emissiveFactor" : [0, 0, 0], "alphaMode" : "OPAQUE", "doubleSided" : true}, {"name" : "cube_cafe.007", "pbrMetallicRoughness" : {"baseColorFactor" : [0.6538910269737244, 0.09408500045537949, 0, 1], "metallicFactor" : 0, "roughnessFactor" : 0.5}, "emissiveFactor" : [0, 0, 0], "alphaMode" : "OPAQUE", "doubleSided" : true}, {"name" : "cube_negro", "pbrMetallicRoughness" : {"baseColorFactor" : [0, 0, 0, 1], "metallicFactor" : 0, "roughnessFactor" : 0.5}, "emissiveFactor" : [0, 0, 0], "alphaMode" : "OPAQUE", "doubleSided" : true}, {"name" : "cube_negro.001", "pbrMetallicRoughness" : {"baseColorFactor" : [0, 0, 0, 1], "metallicFactor" : 0, "roughnessFactor" : 0.5}, "emissiveFactor" : [0, 0, 0], "alphaMode" : "OPAQUE", "doubleSided" : true}, {"name" : "cube_rosa", "pbrMetallicRoughness" : {"baseColorFactor" : [1, 0.28992998600006104, 0.3434459865093231, 1], "metallicFactor" : 0, "roughnessFactor" : 0.5}, "emissiveFactor" : [0, 0, 0], "alphaMode" : "OPAQUE", "doubleSided" : true}, {"name" : "cube_rosa.001", "pbrMetallicRoughness" : {"baseColorFactor" : [1, 0.28992998600006104, 0.3434459865093231, 1], "metallicFactor" : 0, "roughnessFactor" : 0.5}, "emissiveFactor" : [0, 0, 0], "alphaMode" : "OPAQUE", "doubleSided" : true}, {"name" : "cube_blanco", "pbrMetallicRoughness" : {"baseColorFactor" : [1, 1, 1, 1], "metallicFactor" : 0, "roughnessFactor" : 0.5}, "emissiveFactor" : [0, 0, 0], "alphaMode" : "OPAQUE", "doubleSided" : true}], "meshes" : [{"primitives" : [{"attributes" : {"POSITION" : 1, "TEXCOORD_0" : 2, "NORMAL" : 3}, "indices" : 0, "material" : 0, "mode" : 4}]}, {"primitives" : [{"attributes" : {"POSITION" : 5, "TEXCOORD_0" : 6, "NORMAL" : 7}, "indices" : 4, "material" : 1, "mode" : 4}]}, {"primitives" : [{"attributes" : {"POSITION" : 9, "TEXCOORD_0" : 10, "NORMAL" : 11}, "indices" : 8, "material" : 2, "mode" : 4}]}, {"primitives" : [{"attributes" : {"POSITION" : 13, "TEXCOORD_0" : 14, "NORMAL" : 15}, "indices" : 12, "material" : 3, "mode" : 4}]}, {"primitives" : [{"attributes" : {"POSITION" : 17, "TEXCOORD_0" : 18, "NORMAL" : 19}, "indices" : 16, "material" : 4, "mode" : 4}]}, {"primitives" : [{"attributes" : {"POSITION" : 21, "TEXCOORD_0" : 22, "NORMAL" : 23}, "indices" : 20, "material" : 5, "mode" : 4}]}, {"primitives" : [{"attributes" : {"POSITION" : 25, "TEXCOORD_0" : 26, "NORMAL" : 27}, "indices" : 24, "material" : 6, "mode" : 4}]}, {"primitives" : [{"attributes" : {"POSITION" : 29, "TEXCOORD_0" : 30, "NORMAL" : 31}, "indices" : 28, "material" : 7, "mode" : 4}]}, {"primitives" : [{"attributes" : {"POSITION" : 33, "TEXCOORD_0" : 34, "NORMAL" : 35}, "indices" : 32, "material" : 8, "mode" : 4}]}, {"primitives" : [{"attributes" : {"POSITION" : 37, "TEXCOORD_0" : 38, "NORMAL" : 39}, "indices" : 36, "material" : 9, "mode" : 4}]}, {"primitives" : [{"attributes" : {"POSITION" : 41, "TEXCOORD_0" : 42, "NORMAL" : 43}, "indices" : 40, "material" : 10, "mode" : 4}]}, {"primitives" : [{"attributes" : {"POSITION" : 45, "TEXCOORD_0" : 46, "NORMAL" : 47}, "indices" : 44, "material" : 11, "mode" : 4}]}, {"primitives" : [{"attributes" : {"POSITION" : 49, "TEXCOORD_0" : 50, "NORMAL" : 51}, "indices" : 48, "material" : 12, "mode" : 4}]}, {"primitives" : [{"attributes" : {"POSITION" : 53, "TEXCOORD_0" : 54, "NORMAL" : 55}, "indices" : 52, "material" : 13, "mode" : 4}]}, {"primitives" : [{"attributes" : {"POSITION" : 57, "TEXCOORD_0" : 58, "NORMAL" : 59}, "indices" : 56, "material" : 14, "mode" : 4}]}, {"primitives" : [{"attributes" : {"POSITION" : 61, "TEXCOORD_0" : 62, "NORMAL" : 63}, "indices" : 60, "material" : 15, "mode" : 4}]}, {"primitives" : [{"attributes" : {"POSITION" : 65, "TEXCOORD_0" : 66, "NORMAL" : 67}, "indices" : 64, "material" : 16, "mode" : 4}]}], "nodes" : [{"matrix" : [8.411580085754395, 0, 0, 0, 0, 3.9115800857543945, 0, 0, 0, 0, 4.2115797996521, 0, 0, 0, 0, 1], "mesh" : 0, "name" : "Cube"}, {"matrix" : [2.9333300590515137, 0, 0, 0, 0, 2.233330011367798, 0, 0, 0, 0, 2.233330011367798, 0, -6.638279914855957, 1.474560022354126, 0.0075079998932778835, 1], "mesh" : 1, "name" : "Cube.001"}, {"matrix" : [0.800000011920929, 0, 0, 0, 0, 0.7030887440408417, -0.3816624675256335, 0, 0, 0.5724937155064849, 1.0546331422533588, 0, -6.138279914855957, 3.198770046234131, 0.8820080161094666, 1], "mesh" : 2, "name" : "Cube.002"}, {"matrix" : [0.800000011920929, 0, 0, 0, 0, 0.718608821072359, 0.3515698947769202, 0, 0, -0.5273548552623792, 1.0779132583788027, 0, -6.142549991607666, 3.178770065307617, -0.9627379775047302, 1], "mesh" : 3, "name" : "Cube.003"}, {"matrix" : [0.7708830237388611, 0, 0, 0, 0, 0.9708830118179321, 0, 0, 0, 0, 0.7708830237388611, 0, 3.8306500911712646, -2.5155200958251953, 1.529170036315918, 1], "mesh" : 4, "name" : "Cylinder"}, {"matrix" : [1.2999999523162842, 0, 0, 0, 0, 0.5659999847412109, 0, 0, 0, 0, 1.0144699811935425, 0, 3.5833899974823, -3.486920118331909, 1.5292099714279175, 1], "mesh" : 5, "name" : "Cube.004"}, {"matrix" : [0.7708830237388611, 0, 0, 0, 0, 0.9708830118179321, 0, 0, 0, 0, 0.7708830237388611, 0, 3.8306500911712646, -2.5155200958251953, -1.529170036315918, 1], "mesh" : 6, "name" : "Cylinder.001"}, {"matrix" : [1.2999999523162842, 0, 0, 0, 0, 0.5659999847412109, 0, 0, 0, 0, 1.0144699811935425, 0, 3.5833899974823, -3.486920118331909, -1.5292099714279175, 1], "mesh" : 7, "name" : "Cube.005"}, {"matrix" : [0.7708830237388611, 0, 0, 0, 0, 0.9708830118179321, 0, 0, 0, 0, 0.7708830237388611, 0, -3.8306500911712646, -2.5155200958251953, 1.529170036315918, 1], "mesh" : 8, "name" : "Cylinder.002"}, {"matrix" : [1.2999999523162842, 0, 0, 0, 0, 0.5659999847412109, 0, 0, 0, 0, 1.0144699811935425, 0, -4.099999904632568, -3.486920118331909, 1.5292099714279175, 1], "mesh" : 9, "name" : "Cube.006"}, {"matrix" : [0.7708830237388611, 0, 0, 0, 0, 0.9708830118179321, 0, 0, 0, 0, 0.7708830237388611, 0, -3.8306500911712646, -2.5155200958251953, -1.529170036315918, 1], "mesh" : 10, "name" : "Cylinder.003"}, {"matrix" : [1.2999999523162842, 0, 0, 0, 0, 0.5659999847412109, 0, 0, 0, 0, 1.0144699811935425, 0, -4.099999904632568, -3.486920118331909, -1.5292099714279175, 1], "mesh" : 11, "name" : "Cube.007"}, {"matrix" : [0.5139999985694885, 0, 0, 0, 0, 0.4000000059604645, 0, 0, 0, 0, 0.4000000059604645, 0, -8.001020431518555, 2.286129951477051, -1.0481300354003906, 1], "mesh" : 12, "name" : "Cube.008"}, {"matrix" : [0.5139999985694885, 0, 0, 0, 0, 0.4000000059604645, 0, 0, 0, 0, 0.4000000059604645, 0, -8.001020431518555, 2.286129951477051, 1.0481300354003906, 1], "mesh" : 13, "name" : "Cube.009"}, {"matrix" : [0.414000004529953, 0, 0, 0, 0, 0.30000001192092896, 0, 0, 0, 0, 0.30000001192092896, 0, -8.6177396774292, 1.246999979019165, 0.22906500101089478, 1], "mesh" : 14, "name" : "Cube.010"}, {"matrix" : [0.414000004529953, 0, 0, 0, 0, 0.30000001192092896, 0, 0, 0, 0, 0.30000001192092896, 0, -8.6177396774292, 1.246999979019165, -0.22906500101089478, 1], "mesh" : 15, "name" : "Cube.011"}, {"matrix" : [-0.21121500432491302, 0, 0, 0, 0, 0.09978500008583069, 0, 0, 0, 0, 0.31878501176834106, 0, -8.445329666137695, 0.39676201343536377, 0.01659500040113926, 1], "mesh" : 16, "name" : "Cube.012"}], "scene" : 0, "scenes" : [{"nodes" : [0, 1, 2, 3, 4, 5, 6, 7, 8, 9, 10, 11, 12, 13, 14, 15, 16]}]}